<svg width="345.27829697577357" height="261.35625" viewBox="0 0 350 264.9303136084986" class="looka-1j8o68f">
  <defs id="SvgjsDefs1895"></defs>
  <g id="SvgjsG1896" featurekey="phAakL-0" transform="matrix(0.1368657786803935,0,0,0.1368657786803935,105,0)"
    fill="#55b3f3">
    <g xmlns="http://www.w3.org/2000/svg">
      <path
        d="M511.4,0C296.7,0,122.2,174.5,122.2,389.1c0,73,20.2,141.2,55.2,199.6c15.3-4,30.6-7.3,45.8-10.2   c-35.8-54.3-56.6-119.4-56.6-189.5c0-190.6,154.1-344.7,344.7-344.7c190.6,0,344.7,154,344.7,344.7c0,70-20.9,135.1-56.6,189.5   c15.3,2.9,30.6,6.3,45.9,10.2c35-58.4,55.2-126.7,55.2-199.6C900.5,174.5,726,0,511.4,0 M372.4,400.3c-27.6,0-50,22.3-50,50   c0,27.6,22.3,50,50,50c27.6,0,50-22.3,50-50C422.4,422.7,400.1,400.3,372.4,400.3 M650.4,400.3c-27.6,0-50,22.3-50,50   c0,27.6,22.3,50,50,50c27.6,0,50-22.3,50-50C700.4,422.7,678,400.3,650.4,400.3 M329.9,611.5c-91.5,0.3-182.7,23.5-273.1,68.8   l-12.3,6.1v80.7c14.2-5.9,29.2-9.5,44.5-10.6v-41.9c80.9-38.6,161.1-58.4,241.1-58.7L329.9,611.5L329.9,611.5L329.9,611.5z    M330,611.5l0,44.5c52.9-0.2,105.8,9,159.1,25.5c0,106.4,0,212.8,0,319.2h44.5c0-106.4,0-212.8,0-319.2   c53.2-16.5,106.2-25.7,159.1-25.5l0-44.5c-60.6-0.2-121.2,9.8-181.4,29.4c-60.2-19.6-120.8-29.6-181.4-29.4H330z M692.8,611.5V656   c80,0.3,160.2,20.1,241.1,58.7v41.8c15.3,1.2,30.3,4.8,44.5,10.8v-80.8l-12.3-6.1c-90.4-45.3-181.7-68.5-273.2-68.8h0L692.8,611.5z    M100.1,800.5C45.1,800.5,0,845.6,0,900.6c0,55,45.1,100.1,100.1,100.1c55,0,100.1-45.1,100.1-100.1   C200.1,845.6,155.1,800.5,100.1,800.5 M922.8,800.5c-55,0-100.1,45.1-100.1,100.1c0,55,45.1,100.1,100.1,100.1   s100.1-45.1,100.1-100.1C1022.9,845.6,977.8,800.5,922.8,800.5 M100.1,845c31,0,55.6,24.6,55.6,55.6c0,31-24.6,55.6-55.6,55.6   c-31,0-55.6-24.6-55.6-55.6C44.5,869.6,69.1,845,100.1,845 M922.8,845c31,0,55.6,24.6,55.6,55.6c0,31-24.6,55.6-55.6,55.6   s-55.6-24.6-55.6-55.6C867.2,869.6,891.8,845,922.8,845">
      </path>
    </g>
  </g>
  <g id="SvgjsG1897" featurekey="fNbRbf-0"
    transform="matrix(4.9129698626087945,0,0,4.9129698626087945,-3.5373378559678805,131.05952278001664)" fill="#111111">
    <path
      d="M8.7 22.08 l-2.04 -1.78 q-1.38 0 -2.48 -0.47 t-1.87 -1.38 t-1.18 -2.23 t-0.41 -3.04 q0 -1.7 0.39 -3.02 t1.16 -2.24 t1.88 -1.4 t2.55 -0.48 t2.56 0.49 t1.88 1.41 t1.15 2.24 t0.39 3 q0 1.14 -0.19 2.15 t-0.56 1.82 t-0.9 1.37 t-1.21 0.8 l0.52 0.36 q1.36 0.94 2.52 0.94 q-0.04 1.02 -0.61 1.65 t-1.59 0.63 q-0.98 0 -1.96 -0.82 z M6.7 8.5 q-2.7 0 -2.7 4.68 q0 4.66 2.7 4.66 q2.66 0 2.66 -4.66 q0 -4.68 -2.66 -4.68 z M19.82 8.98 l0.02 1.48 l0 9.54 q-0.68 0.12 -1.62 0.12 t-1.58 -0.12 l0 -11.02 l-1.28 0.02 l-2.06 0 q-0.12 -0.58 -0.12 -1.33 t0.12 -1.33 l9.9 0 q0.16 0.52 0.16 1.26 t-0.4 1.07 t-1.28 0.33 l-0.58 0 l-1.26 -0.02 l-0.02 0 z M33.04 13.4 l0 4.1 q0 1.34 0.5 1.98 q-0.76 0.68 -1.84 0.68 q-1.04 0 -1.42 -0.48 t-0.38 -1.46 l0 -4.26 q0 -0.68 -0.18 -1 t-0.7 -0.32 q-0.3 0 -0.68 0.16 t-0.78 0.52 l0 6.68 q-0.66 0.12 -1.52 0.12 t-1.52 -0.12 l0 -14.58 l0.14 -0.14 l1.2 0 q0.96 0 1.33 0.42 t0.37 1.46 l0 3.78 q1.34 -1.1 2.68 -1.1 t2.07 0.97 t0.73 2.59 z M34.78 11.46 q0.1 -0.4 0.38 -0.89 t0.56 -0.71 q1.84 0.14 2.56 1.82 q0.76 -1.8 2.5 -1.8 q0.52 0 1.32 0.16 q0 0.62 -0.21 1.47 t-0.57 1.45 q-0.34 -0.12 -1.02 -0.2 q-1 0 -1.64 1.02 l0 6.22 q-0.66 0.12 -1.55 0.12 t-1.57 -0.12 l0 -6.46 q0 -1.5 -0.76 -2.08 z M50.8 16.02 l-5.22 0 q0.04 0.9 0.46 1.4 t1.38 0.5 q0.48 0 1.11 -0.14 t1.45 -0.46 q0.66 0.68 0.82 1.84 q-1.6 1.14 -3.92 1.14 q-1.26 0 -2.11 -0.4 t-1.38 -1.12 t-0.75 -1.7 t-0.22 -2.14 q0 -1.12 0.27 -2.07 t0.82 -1.65 t1.4 -1.1 t1.99 -0.4 q0.96 0 1.73 0.32 t1.31 0.88 t0.83 1.34 t0.29 1.7 q0 1.22 -0.26 2.06 z M45.56 13.86 l2.64 0 l0 -0.22 q0 -0.74 -0.33 -1.22 t-0.99 -0.48 q-0.64 0 -0.95 0.45 t-0.37 1.47 z M61.44 18.56 q-0.1 0.42 -0.38 0.9 t-0.58 0.7 q-1.4 -0.04 -2.16 -1.06 q-1.3 1.2 -2.82 1.2 q-0.78 0 -1.36 -0.25 t-0.98 -0.67 t-0.6 -0.97 t-0.2 -1.15 q0 -0.86 0.31 -1.51 t0.85 -1.08 t1.26 -0.65 t1.54 -0.22 q0.46 0 0.81 0.01 t0.61 0.03 l0 -0.38 q0 -1.26 -1.3 -1.26 q-0.84 0 -2.94 0.64 q-0.6 -0.7 -0.76 -2.18 q0.48 -0.18 1.07 -0.34 t1.21 -0.28 t1.22 -0.19 t1.08 -0.07 q0.7 0 1.35 0.2 t1.14 0.61 t0.78 1.06 t0.29 1.55 l0 4.06 q0 0.92 0.56 1.3 z M55.4 17.06 q0 0.94 1.08 0.94 q0.56 0 1.26 -0.58 l0 -1.6 q-0.4 -0.02 -0.67 -0.03 t-0.41 -0.01 q-1.26 0 -1.26 1.28 z M66.5 9.82 q0.96 0 1.86 0.44 l0 -4.84 l0.12 -0.14 l1.22 0 q0.96 0 1.33 0.42 t0.37 1.46 l0 9.96 q0 1.06 0.56 1.44 q-0.1 0.42 -0.38 0.9 t-0.58 0.7 q-1.46 -0.04 -2.14 -1.12 q-1.2 1.26 -2.88 1.26 t-2.58 -1.4 t-0.9 -3.84 q0 -1.2 0.31 -2.17 t0.85 -1.65 t1.27 -1.05 t1.57 -0.37 z M66.9 17.78 q0.82 0 1.46 -0.78 l0 -4.38 q-0.82 -0.48 -1.3 -0.48 q-1.36 0 -1.36 3 q0 2.64 1.2 2.64 z">
    </path>
  </g>
  <g id="SvgjsG1898" featurekey="gqtJpI-0"
    transform="matrix(0.7665016432721081,0,0,0.7665016432721081,33.98821742517974,249.37033046937265)" fill="#55b3f3">
    <path
      d="M12.14 6.34 l0 8.62 q0 2.56 -1.4 3.95 t-4 1.39 t-4.01 -1.39 t-1.41 -3.95 l0 -8.62 l0.14 -0.14 l1.18 0 q1.9 0 1.9 2.04 l0 6.76 q0 1.4 0.5 2.08 t1.7 0.68 t1.7 -0.68 t0.5 -2.08 l0 -8.66 q0.62 -0.12 1.6 -0.12 q0.96 0 1.6 0.12 z M35.736 6.199999999999999 l0.14 0.14 l0 13.6 q-0.8 0.18 -1.89 0.18 t-1.93 -0.12 l-3.14 -7.16 q-0.56 -1.22 -1.14 -2.82 l-0.06 0.02 q0.24 2.92 0.24 5.98 l0 3.98 q-0.62 0.12 -1.5 0.12 t-1.48 -0.12 l0 -13.6 q0.76 -0.18 1.83 -0.18 t1.91 0.12 l3.1 7.14 q0.84 1.98 1.24 3.04 l0.08 -0.04 q-0.24 -2.78 -0.24 -5.9 l0 -2.44 q0 -1.04 0.42 -1.49 t1.36 -0.45 l1.06 0 z M58.692 10.56 q0 0.66 -0.2 1.25 t-0.53 1.06 t-0.78 0.82 t-0.93 0.53 q1.04 0.38 1.54 1.84 l0.6 1.7 q0.34 1 1 1.48 q-0.3 0.4 -0.9 0.67 t-1.32 0.27 t-1.12 -0.41 t-0.74 -1.43 l-0.72 -2.1 q-0.22 -0.6 -0.59 -0.92 t-1.11 -0.32 l-0.82 0 l0 5 q-0.64 0.12 -1.6 0.12 t-1.58 -0.12 l0 -13.56 l0.14 -0.14 q1.74 -0.04 2.93 -0.06 t1.87 -0.02 q1.1 0 2 0.27 t1.53 0.81 t0.98 1.36 t0.35 1.9 z M52.072 8.62 l0 3.92 q0.9 0 1.54 -0.03 t1.03 -0.24 t0.59 -0.59 t0.2 -1.1 q0 -1.94 -1.88 -1.94 l-0.83 0 t-0.65 -0.02 z M74.50800000000001 17.14 q-0.54 0 -0.8 -0.02 l-0.86 2.9 q-0.48 0.12 -1.34 0.12 q-0.96 0 -1.56 -0.22 l-0.1 -0.16 l4.4 -13.42 q0.78 -0.12 1.82 -0.12 q1.18 0 1.88 0.14 l4.32 13.44 q-0.7 0.38 -1.58 0.38 q-1.04 0 -1.46 -0.36 t-0.72 -1.38 l-0.38 -1.32 q-0.26 0.02 -0.78 0.02 l-2.84 0 z M74.44800000000001 14.620000000000001 l0.8 -0.02 l1.46 0 q0.1 0 0.35 0.01 t0.37 0.01 l-0.34 -1.24 q-0.48 -1.68 -1.1 -4.12 l-0.12 0 q-0.16 0.86 -0.96 3.82 z M97.76400000000001 17.32 l2.62 -10.98 q0.48 -0.12 1.24 -0.12 q1.04 0 1.64 0.22 l0.12 0.16 l-3.74 13.4 q-1.14 0.12 -2.29 0.12 t-1.66 -0.29 t-0.77 -1.15 l-3.32 -12.06 q1.08 -0.46 1.78 -0.46 q0.84 0 1.24 0.38 t0.62 1.2 l1.54 5.7 q0.36 1.34 0.76 3.64 q0.04 0.24 0.22 0.24 z M118.2 15.96 l-0.02 1.44 l0 0.02 q0.92 -0.04 1.48 -0.04 l4.64 0 q0 0.74 -0.06 1.14 q-0.24 1.54 -2.04 1.54 l-5.32 0 q-0.86 0 -1.35 -0.5 t-0.49 -1.36 l0 -11.72 l0.14 -0.14 l8.62 0 q0.12 0.58 0.12 1.26 t-0.28 1.42 l-5.46 0 l0.02 1.44 l0 1.4 q0.52 -0.02 1.36 -0.02 l3.06 0 q0.18 0.56 0.18 1.28 t-0.18 1.32 l-4.42 0 l0 1.52 z M141.57600000000002 17.3 l3.46 0 q0 0.8 -0.1 1.37 t-0.64 0.98 t-1.42 0.41 l-4.52 0 q-0.86 0 -1.36 -0.5 t-0.5 -1.36 l0 -11.86 l0.14 -0.14 l1.18 0 q1.88 0 1.88 2.04 l0 9.14 q0.88 -0.08 1.88 -0.08 z M182.108 19.22 q-0.68 0.96 -2.12 0.96 q-0.82 0 -1.23 -0.42 t-0.71 -1.42 l-0.76 -2.34 q-0.3 -0.94 -0.72 -1.34 t-1.14 -0.4 q-0.24 0 -0.88 0.04 l0 5.7 q-0.62 0.12 -1.6 0.12 t-1.6 -0.12 l0 -13.66 q0.62 -0.12 1.6 -0.12 t1.6 0.12 l0 5.28 l0.52 -0.02 q0.36 0 0.52 -0.13 t0.38 -0.55 l1.9 -3.58 q0.3 -0.62 0.64 -0.87 t1.06 -0.25 q0.8 0 1.86 0.1 l0.18 0.22 l-2.44 4.6 q-0.46 0.92 -1.12 1.46 q0.94 0.2 1.41 0.76 t0.79 1.5 l0.82 2.48 q0.16 0.46 0.24 0.68 t0.4 0.74 q0.14 0.2 0.4 0.46 z M204.524 6.199999999999999 l0.14 0.14 l0 13.6 q-0.8 0.18 -1.89 0.18 t-1.93 -0.12 l-3.14 -7.16 q-0.56 -1.22 -1.14 -2.82 l-0.06 0.02 q0.24 2.92 0.24 5.98 l0 3.98 q-0.62 0.12 -1.5 0.12 t-1.48 -0.12 l0 -13.6 q0.76 -0.18 1.83 -0.18 t1.91 0.12 l3.1 7.14 q0.84 1.98 1.24 3.04 l0.08 -0.04 q-0.24 -2.78 -0.24 -5.9 l0 -2.44 q0 -1.04 0.42 -1.49 t1.36 -0.45 l1.06 0 z M220.64 16.28 q0.54 1.56 2.18 1.56 q0.82 0 1.33 -0.41 t0.8 -1.04 t0.39 -1.41 t0.1 -1.54 q0 -0.7 -0.05 -1.56 t-0.29 -1.61 t-0.76 -1.26 t-1.52 -0.51 q-0.96 0 -1.47 0.49 t-0.76 1.21 t-0.31 1.53 t-0.06 1.43 q0 0.92 0.09 1.64 t0.33 1.48 z M219.02 19.04 q-2.14 -1.78 -2.14 -5.86 q0 -1.76 0.41 -3.09 t1.18 -2.23 t1.87 -1.36 t2.48 -0.46 t2.49 0.46 t1.88 1.37 t1.18 2.24 t0.41 3.07 t-0.41 3.07 t-1.18 2.23 t-1.88 1.36 t-2.49 0.46 q-2.28 0 -3.8 -1.26 z M242.15599999999998 18.68 l-2.36 -12.16 q0.96 -0.36 1.7 -0.36 q0.84 0 1.22 0.37 t0.54 1.39 l0.84 5.16 q0.38 2.32 0.48 3.24 t0.13 0.96 t0.13 0.04 l1.66 -10.72 q0.74 -0.14 2.06 -0.14 t2.04 0.14 l1.52 10.46 q0.02 0.18 0.07 0.22 t0.15 0.04 q0.18 -1.88 0.6 -4.26 l1.12 -6.72 q0.58 -0.12 1.34 -0.12 q0.92 0 1.62 0.22 l0.14 0.18 l-2.64 13.36 q-1.3 0.14 -2.44 0.14 t-1.62 -0.28 t-0.62 -1.16 l-0.68 -4.34 q-0.36 -2.36 -0.58 -4.64 l-0.14 0 q-0.22 1.94 -0.66 4.64 l-0.9 5.64 q-1.36 0.14 -2.47 0.14 t-1.59 -0.28 t-0.66 -1.16 z M274.13199999999995 17.3 l3.46 0 q0 0.8 -0.1 1.37 t-0.64 0.98 t-1.42 0.41 l-4.52 0 q-0.86 0 -1.36 -0.5 t-0.5 -1.36 l0 -11.86 l0.14 -0.14 l1.18 0 q1.88 0 1.88 2.04 l0 9.14 q0.88 -0.08 1.88 -0.08 z M292.64799999999997 15.96 l-0.02 1.44 l0 0.02 q0.92 -0.04 1.48 -0.04 l4.64 0 q0 0.74 -0.06 1.14 q-0.24 1.54 -2.04 1.54 l-5.32 0 q-0.86 0 -1.35 -0.5 t-0.49 -1.36 l0 -11.72 l0.14 -0.14 l8.62 0 q0.12 0.58 0.12 1.26 t-0.28 1.42 l-5.46 0 l0.02 1.44 l0 1.4 q0.52 -0.02 1.36 -0.02 l3.06 0 q0.18 0.56 0.18 1.28 t-0.18 1.32 l-4.42 0 l0 1.52 z M319.804 19.12 q-0.64 0.52 -1.68 0.76 t-2.3 0.24 q-0.62 0 -1.79 -0.02 t-2.93 -0.06 l-0.14 -0.14 l0 -13.46 l0.14 -0.14 q1.16 -0.04 2.41 -0.06 t2.63 -0.02 q1.7 0 2.84 0.54 t1.82 1.48 t0.96 2.21 t0.28 2.73 q0 2 -0.46 3.46 t-1.78 2.48 z M316.12399999999997 17.62 q2.64 0 2.64 -4.44 q0 -4.46 -2.64 -4.46 l-1.13 0 t-0.85 -0.02 l0 8.94 q0.36 -0.02 0.85 -0.02 l1.13 0 z M339.58 12.24 l3.14 -0.02 q2.12 0 2.12 2 l0 5.26 q-2.58 0.82 -5.42 0.82 q-1.44 0 -2.55 -0.48 t-1.86 -1.38 t-1.13 -2.21 t-0.38 -2.97 q0 -1.82 0.53 -3.17 t1.42 -2.25 t2.05 -1.35 t2.42 -0.45 q2.6 0 4.88 1.44 q-0.02 0.32 -0.15 0.65 t-0.32 0.64 t-0.44 0.56 t-0.51 0.43 q-1.66 -1.08 -3.36 -1.08 q-3.26 0 -3.26 4.56 q0 4.54 3.34 4.54 q0.46 0 0.89 -0.04 t0.85 -0.12 l0 -1.34 q0 -0.46 0.01 -0.8 t0.03 -0.58 l-1 0 q-0.86 0 -1.19 -0.33 t-0.33 -1.03 q0 -0.6 0.22 -1.3 z M360.516 15.96 l-0.02 1.44 l0 0.02 q0.92 -0.04 1.48 -0.04 l4.64 0 q0 0.74 -0.06 1.14 q-0.24 1.54 -2.04 1.54 l-5.32 0 q-0.86 0 -1.35 -0.5 t-0.49 -1.36 l0 -11.72 l0.14 -0.14 l8.62 0 q0.12 0.58 0.12 1.26 t-0.28 1.42 l-5.46 0 l0.02 1.44 l0 1.4 q0.52 -0.02 1.36 -0.02 l3.06 0 q0.18 0.56 0.18 1.28 t-0.18 1.32 l-4.42 0 l0 1.52 z">
    </path>
  </g>
</svg>