<?xml version="1.0" standalone="no"?>
<!DOCTYPE svg PUBLIC "-//W3C//DTD SVG 20010904//EN"
 "http://www.w3.org/TR/2001/REC-SVG-20010904/DTD/svg10.dtd">
<svg version="1.0" xmlns="http://www.w3.org/2000/svg"
 width="345.000000pt" height="345.000000pt" viewBox="0 0 345.000000 345.000000"
 preserveAspectRatio="xMidYMid meet">
<metadata>
Created by potrace 1.14, written by Peter Selinger 2001-2017
</metadata>
<g transform="translate(0.000000,345.000000) scale(0.100000,-0.100000)"
fill="#000000" stroke="none">
<path d="M1602 3016 c-172 -44 -318 -179 -377 -351 -23 -67 -28 -214 -9 -284
23 -86 51 -141 71 -141 41 1 45 14 18 73 -102 222 -12 488 203 600 321 168
695 -71 678 -433 -3 -54 -12 -96 -31 -141 -35 -85 -36 -93 -3 -97 30 -4 38 8
70 96 24 70 32 198 17 272 -37 179 -177 335 -354 395 -67 22 -215 28 -283 11z"/>
<path d="M1492 2470 c-53 -50 0 -132 70 -108 49 17 55 93 9 117 -30 16 -55 13
-79 -9z"/>
<path d="M1877 2479 c-44 -26 -37 -100 11 -117 69 -24 121 53 72 106 -22 24
-54 28 -83 11z"/>
<path d="M1377 2199 c-63 -10 -172 -43 -233 -71 l-49 -23 -1 -53 c-1 -42 2
-52 15 -51 31 1 46 14 46 39 0 19 8 29 38 43 70 33 189 58 277 59 83 1 195
-16 215 -32 7 -6 10 -82 10 -207 -1 -109 1 -204 3 -210 2 -7 14 -13 27 -13 13
0 25 6 27 13 2 6 4 103 4 215 l-1 203 35 8 c77 20 108 24 192 23 86 0 188 -22
271 -57 34 -14 42 -27 38 -62 -1 -7 4 -13 11 -13 7 0 23 -3 34 -6 20 -5 21 -2
20 48 l-1 53 -63 28 c-164 73 -357 90 -519 46 -34 -9 -56 -8 -117 5 -85 19
-207 26 -279 15z"/>
<path d="M1099 1927 c-101 -68 -72 -221 46 -243 107 -20 192 93 145 191 -21
41 -75 75 -120 75 -22 0 -51 -9 -71 -23z m106 -43 c26 -11 45 -62 33 -95 -22
-63 -119 -59 -137 5 -17 64 40 114 104 90z"/>
<path d="M2213 1930 c-45 -27 -65 -62 -66 -114 -2 -137 186 -185 249 -64 62
120 -70 247 -183 178z m101 -51 c53 -25 50 -107 -5 -129 -65 -27 -125 38 -93
102 20 39 52 48 98 27z"/>
<path d="M1168 1482 c-15 -3 -16 -35 -16 -358 0 -254 4 -354 12 -355 16 -2 87
-2 114 0 22 1 22 2 22 167 l0 165 35 15 c26 11 41 12 55 4 21 -11 21 -8 22
-195 1 -106 15 -154 46 -157 39 -3 95 3 112 12 17 9 18 14 8 38 -6 15 -11 92
-12 172 -3 164 -13 207 -59 246 -27 23 -38 26 -87 22 -37 -3 -67 -12 -88 -27
l-32 -22 0 115 c0 103 -2 118 -20 136 -11 11 -28 20 -37 21 -10 0 -27 2 -38 3
-11 1 -27 0 -37 -2z"/>
<path d="M3289 1481 c-12 -5 -15 -29 -14 -119 l0 -113 -40 7 c-83 15 -131 -1
-182 -60 -43 -48 -58 -98 -58 -196 0 -165 61 -246 181 -243 32 1 94 28 105 46
4 5 25 -1 50 -15 24 -14 50 -24 57 -23 6 2 16 3 20 4 5 0 15 16 24 34 13 27
14 37 3 57 -9 17 -12 98 -13 297 -1 297 -5 322 -55 324 -12 0 -31 2 -43 3 -11
1 -27 0 -35 -3z m-34 -344 c18 -11 20 -22 19 -107 -2 -130 -1 -125 -29 -138
-34 -16 -60 -15 -74 2 -18 21 -28 104 -20 164 10 81 51 112 104 79z"/>
<path d="M193 1431 c-83 -28 -131 -76 -166 -164 -28 -73 -31 -229 -6 -313 34
-111 134 -194 234 -194 20 0 43 -12 70 -36 73 -65 100 -82 138 -89 51 -10 90
8 110 51 21 43 21 54 1 54 -13 0 -111 44 -122 55 -2 2 14 20 37 40 63 57 84
124 85 265 0 133 -20 202 -79 264 -69 73 -199 102 -302 67z m144 -115 c55 -18
84 -110 78 -244 -5 -132 -46 -195 -126 -194 -89 1 -124 68 -124 232 1 82 5
113 20 144 30 62 84 84 152 62z"/>
<path d="M645 1432 c-43 -5 -43 -6 -36 -114 1 -14 12 -17 69 -16 37 0 73 0 80
-1 9 -1 12 -61 12 -266 l0 -265 23 -1 c25 -2 106 -2 123 0 7 1 11 77 12 249 0
136 1 256 1 268 1 19 6 20 61 18 76 -3 101 14 105 75 2 28 -2 44 -11 48 -15 6
-393 10 -439 5z"/>
<path d="M2157 1255 c-48 -17 -83 -48 -110 -100 -18 -34 -22 -57 -22 -145 0
-89 4 -111 23 -147 35 -67 78 -93 176 -107 33 -5 113 12 161 33 l46 20 -16 38
c-21 51 -27 55 -58 44 -15 -6 -49 -13 -76 -16 -42 -5 -53 -2 -74 17 -14 13
-28 33 -32 46 -7 25 -18 23 138 24 59 0 110 4 112 9 12 18 14 115 3 157 -27
108 -156 169 -271 127z m120 -115 c9 -11 18 -31 20 -45 4 -25 2 -25 -62 -25
-36 0 -65 4 -65 9 0 19 21 66 33 73 22 14 57 8 74 -12z"/>
<path d="M2645 1254 c-77 -14 -125 -29 -125 -41 0 -20 22 -83 30 -88 5 -3 40
2 78 11 60 14 73 15 98 3 19 -9 30 -23 32 -40 3 -26 2 -26 -70 -31 -117 -8
-173 -51 -185 -144 -16 -133 118 -210 244 -139 46 25 47 25 67 7 31 -28 71
-35 90 -16 32 31 37 52 23 81 -10 20 -14 67 -14 159 0 85 -5 139 -13 155 -44
84 -117 108 -255 83z m113 -318 c4 -43 -16 -65 -59 -66 -34 0 -51 21 -47 57 3
31 32 49 74 48 26 -2 29 -6 32 -39z"/>
<path d="M1683 1248 c-30 -38 -34 -57 -16 -85 15 -23 18 -52 18 -207 l1 -180
25 -6 c13 -4 38 -5 54 -4 80 4 71 -13 72 156 l1 153 28 23 c22 19 35 23 65 19
36 -5 39 -3 51 32 6 20 13 42 14 49 1 8 5 16 8 19 3 3 1 14 -5 24 -7 14 -21
19 -50 19 -49 0 -90 -20 -114 -56 l-17 -27 -17 26 c-16 27 -66 57 -94 57 -8 0
-19 -6 -24 -12z"/>
<path d="M349 518 c0 -7 -2 -21 -4 -32 -6 -33 13 -66 39 -66 33 0 48 22 44 65
-4 47 -23 45 -23 -2 -1 -28 -6 -39 -18 -41 -14 -3 -17 5 -17 42 0 25 -4 46
-10 46 -5 0 -10 -6 -11 -12z"/>
<path d="M527 522 c-2 -4 -3 -27 -2 -51 1 -53 25 -70 25 -19 l1 33 14 -32 c22
-52 42 -42 41 20 -1 31 -5 50 -11 47 -5 -3 -9 -18 -8 -35 l1 -30 -15 32 c-16
31 -39 49 -46 35z"/>
<path d="M709 528 c-1 -2 -2 -27 -3 -55 -1 -37 2 -53 11 -53 7 0 13 9 13 20 0
11 4 20 9 20 5 0 11 -9 14 -20 3 -11 10 -20 16 -20 13 0 14 10 2 29 -6 9 -5
21 2 32 14 23 2 38 -36 45 -15 2 -28 3 -28 2z m41 -33 c0 -8 -4 -15 -10 -15
-5 0 -10 7 -10 15 0 8 5 15 10 15 6 0 10 -7 10 -15z"/>
<path d="M895 517 c-29 -79 -33 -97 -23 -97 6 0 16 7 23 16 10 15 13 15 28 -1
27 -26 36 -9 20 39 -15 44 -40 67 -48 43z m25 -48 c0 -5 -4 -9 -10 -9 -5 0
-10 7 -10 16 0 8 5 12 10 9 6 -3 10 -10 10 -16z"/>
<path d="M1035 498 c12 -55 24 -78 40 -78 8 0 15 3 15 8 0 4 7 29 15 55 10 34
11 47 3 45 -6 -2 -16 -22 -23 -43 l-10 -39 -13 42 c-15 50 -37 58 -27 10z"/>
<path d="M1211 521 c-5 -4 -8 -26 -7 -51 2 -41 4 -45 30 -48 16 -2 33 1 39 7
8 8 3 11 -17 11 -18 0 -26 4 -23 13 2 6 9 12 15 12 5 0 14 3 18 8 4 4 -3 7
-15 7 -14 0 -21 5 -18 13 2 6 10 12 17 12 7 0 15 5 17 11 3 10 -40 14 -56 5z"/>
<path d="M1369 521 c-1 -6 -1 -27 -1 -46 0 -19 0 -40 1 -46 1 -14 53 -7 58 8
3 7 -3 9 -16 6 -19 -5 -21 -1 -21 35 0 23 -4 44 -10 47 -5 3 -10 1 -11 -4z"/>
<path d="M1630 475 c0 -30 5 -55 10 -55 9 0 14 14 11 33 -3 17 27 5 32 -13 3
-11 11 -20 17 -20 8 0 9 6 4 18 -4 9 -8 35 -7 57 l1 40 -19 -24 -20 -24 -6 21
c-10 41 -23 22 -23 -33z"/>
<path d="M1800 475 c0 -58 20 -79 21 -22 l0 32 16 -32 c26 -51 43 -42 43 22 0
30 -4 55 -10 55 -5 0 -10 -17 -10 -37 l-1 -38 -17 35 c-27 55 -42 49 -42 -15z"/>
<path d="M1988 512 c-16 -19 -14 -72 3 -83 35 -22 72 1 72 46 0 47 -47 71 -75
37z m47 -38 c0 -19 -5 -29 -15 -29 -16 0 -25 28 -16 51 10 25 31 10 31 -22z"/>
<path d="M2154 483 c3 -26 10 -51 16 -57 13 -13 40 11 41 38 1 15 3 12 8 -9
10 -47 36 -43 47 8 6 24 9 48 6 55 -7 21 -22 13 -22 -13 0 -14 -4 -25 -10 -25
-5 0 -10 9 -10 19 0 11 -4 22 -8 25 -9 5 -34 -8 -33 -18 1 -3 1 -18 0 -33 -1
-22 -3 -19 -11 15 -13 59 -33 55 -24 -5z"/>
<path d="M2369 511 c-1 -12 -1 -32 -1 -46 0 -43 1 -45 32 -45 17 0 30 5 30 10
0 6 -9 10 -20 10 -17 0 -20 7 -20 39 0 41 -19 69 -21 32z"/>
<path d="M2524 516 c-3 -8 -4 -31 -2 -52 3 -36 6 -39 36 -42 18 -2 32 1 32 7
0 6 -9 11 -20 11 -11 0 -20 7 -20 15 0 8 3 14 8 13 4 -2 8 2 10 7 1 6 -2 10
-8 10 -5 0 -9 5 -7 10 1 6 10 9 20 9 16 -1 26 15 10 17 -5 0 -18 2 -31 5 -13
2 -25 -2 -28 -10z"/>
<path d="M2687 522 c-4 -6 -2 -67 2 -94 1 -5 14 -8 29 -8 20 0 32 7 40 23 11
19 10 63 -1 74 -8 7 -67 11 -70 5z m48 -47 c0 -16 -6 -30 -12 -32 -9 -3 -13 7
-13 32 0 25 4 35 13 33 6 -3 12 -17 12 -33z"/>
<path d="M2875 516 c-22 -16 -25 -74 -4 -87 8 -5 26 -9 42 -9 23 0 27 4 27 30
0 23 -4 30 -20 30 -22 0 -27 -16 -7 -23 6 -2 9 -8 5 -12 -4 -4 -14 -5 -23 -2
-18 8 -20 56 -2 59 6 0 17 2 22 3 6 2 15 3 20 4 12 2 -16 21 -31 21 -5 0 -19
-6 -29 -14z"/>
<path d="M3036 520 c-3 -4 -1 -68 3 -92 2 -12 61 -9 61 2 0 6 -9 10 -20 10
-11 0 -20 7 -20 15 0 9 6 12 15 9 9 -4 15 0 15 10 0 10 -6 13 -15 10 -9 -4
-15 0 -15 9 0 8 7 14 16 13 9 0 18 4 20 9 4 10 -55 15 -60 5z"/>
</g>
</svg>
